<svg id="Capa_1" enable-background="new 0 0 512.002 512.002" height="512" viewBox="0 0 512.002 512.002" width="512" xmlns="http://www.w3.org/2000/svg"><g><path d="m473.058 502.83-29.054-127.208c-3.703-16.214-15.985-28.901-32.063-33.133l-30.869-8.794c-3.979-1.136-8.132 1.174-9.268 5.158-1.135 3.983 1.175 8.133 5.158 9.268l23.958 6.825-37.047 147.73c-1.008 4.018 1.433 8.092 5.45 9.099.612.154 1.226.228 1.83.228 3.357 0 6.415-2.272 7.269-5.678l36.731-146.467c7.127 4.022 12.349 10.873 14.229 19.105l29.054 127.208c.794 3.477 3.884 5.832 7.305 5.832.553 0 1.115-.062 1.677-.19 4.037-.923 6.563-4.945 5.64-8.983z"/><path d="m262.328 508.519c.179-.39.501-.645.971-2.288l42.312-178.435 37.517 10.687c.687.196 1.378.289 2.059.289 3.266 0 6.27-2.15 7.209-5.447 1.135-3.983-1.175-8.133-5.158-9.268l-39.614-11.285v-48.003c27.568-1.563 49.519-24.479 49.519-52.432v-6.232h10.839c21.856 0 39.638-17.781 39.638-39.637 0-16.777-10.482-31.143-25.237-36.918v-69.014c-.003-33.38-27.16-60.536-60.539-60.536h-131.687c-26.088 0-49.167 16.614-57.428 41.344-1.312 3.929.809 8.177 4.737 9.489 3.927 1.312 8.177-.809 9.49-4.737 6.214-18.6 23.575-31.096 43.201-31.096h131.687c25.108 0 45.535 20.428 45.535 45.536v66.294h-15.543c-32.896-21.745-37.248-66.485-37.287-66.931-.288-3.357-2.779-6.11-6.091-6.731-3.306-.613-6.63 1.043-8.115 4.068-26.03 53.048-130.773 68.525-138.487 69.594h-17.235v-46.315c0-4.143-3.358-7.5-7.5-7.5s-7.5 3.357-7.5 7.5v49.035c-14.755 5.776-25.237 20.141-25.237 36.918 0 10.034 3.755 19.202 9.924 26.192l-10.808 24.191c-5.946 13.31-8.96 27.447-8.96 42.023v70.359c0 4.906.586 9.757 1.704 14.468-14.183 5.118-24.843 17.02-28.247 31.921l-29.053 127.208c-.922 4.038 1.604 8.06 5.642 8.981.562.129 1.124.19 1.677.19 3.42 0 6.511-2.356 7.305-5.832l29.052-127.207c1.88-8.232 7.102-15.082 14.229-19.104l36.73 146.467c.854 3.405 3.911 5.678 7.27 5.678.604 0 1.217-.073 1.83-.228 4.018-1.007 6.458-5.081 5.451-9.099l-31.105-124.033 42.633 49.557c5.353 6.223 13.13 9.792 21.338 9.792 8.949 0 17.159-4.107 22.525-11.27 5.366-7.161 7.002-16.195 4.488-24.784l-5.077-17.348c-1.164-3.976-5.331-6.259-9.305-5.092-3.975 1.164-6.255 5.33-5.091 9.305l5.077 17.348c1.174 4.013.41 8.231-2.096 11.577-2.506 3.345-6.341 5.264-10.521 5.264-3.833 0-7.466-1.667-9.967-4.574l-49.94-58.051c-7.447-8.658-11.548-19.714-11.548-31.133v-70.359c0-12.453 2.576-24.533 7.656-35.904l9.354-20.935c5.275 2.602 11.204 4.07 17.473 4.07h10.838v6.232c0 17.844 8.951 33.627 22.591 43.124-.031.279-.051 76.104-.051 76.104 0 7.162.581 14.377 1.728 21.443.598 3.682 3.781 6.3 7.394 6.3.399 0 .804-.032 1.21-.098 4.088-.663 6.865-4.516 6.202-8.604-1.007-6.204-1.518-12.536-1.53-18.826l13.986-3.984 42.312 178.435c1.032 5.58 10.046 8.37 13.624 2.287zm-39.006-174.336c10.377 4.773 21.525 7.175 32.679 7.175 11.153 0 22.301-2.402 32.678-7.175l-32.678 137.81zm69.3-19.502c-22.022 15.548-51.219 15.55-73.243 0v-49.819h73.243zm64.521-172.851h10.836c13.585 0 24.638 11.053 24.638 24.638s-11.053 24.637-24.638 24.637h-10.836zm-202.285 49.274h-10.836c-13.585 0-24.638-11.052-24.638-24.637s11.052-24.638 24.638-24.638h10.836zm15.003 21.233v-71.538c22.916-3.717 98.564-18.845 133.414-60.832 4.755 17.166 15.425 42.225 38.866 58.404v73.965c0 20.69-16.833 37.523-37.523 37.523h-97.233c-20.691.001-37.524-16.832-37.524-37.522zm34.518 52.431v48.003l-11.979 3.412v-53.513c3.831 1.143 7.84 1.864 11.979 2.098z"/><path d="m335.95 371.112c-18.438 0-33.438 15.001-33.438 33.439s15 33.439 33.438 33.439 33.439-15.001 33.439-33.439-15.001-33.439-33.439-33.439zm0 51.879c-10.167 0-18.438-8.271-18.438-18.439s8.271-18.439 18.438-18.439c10.168 0 18.439 8.271 18.439 18.439s-8.271 18.439-18.439 18.439z"/><path d="m256.001 184.026c4.143 0 7.5-3.357 7.5-7.5v-28.156c0-4.143-3.357-7.5-7.5-7.5-4.142 0-7.5 3.357-7.5 7.5v28.156c0 4.143 3.358 7.5 7.5 7.5z"/><path d="m256.11 223.378c9.232 0 17.912-3.596 24.44-10.123 2.929-2.93 2.929-7.678 0-10.607-2.93-2.928-7.678-2.928-10.607 0-3.694 3.695-8.607 5.73-13.833 5.73-5.071 0-9.879-1.933-13.538-5.441-2.989-2.867-7.736-2.767-10.604.222-2.867 2.989-2.769 7.737.221 10.604 6.465 6.2 14.961 9.615 23.921 9.615z"/></g></svg>